<svg xmlns="http://www.w3.org/2000/svg" xmlns:xlink="http://www.w3.org/1999/xlink" width="832" height="1020" viewBox="0 0 832 1020">
  <defs>
    <linearGradient id="linear-gradient" x1="0.359" y1="0.861" x2="0.817" y2="0.858" gradientUnits="objectBoundingBox">
      <stop offset="0" stop-color="#7b206f"/>
      <stop offset="1" stop-color="#c833ca"/>
    </linearGradient>
    <filter id="Elipse_10" x="4" y="96" width="482" height="482" filterUnits="userSpaceOnUse">
      <feOffset dy="6" input="SourceAlpha"/>
      <feGaussianBlur stdDeviation="6" result="blur"/>
      <feFlood flood-opacity="0.161"/>
      <feComposite operator="in" in2="blur"/>
      <feComposite in="SourceGraphic"/>
    </filter>
    <linearGradient id="linear-gradient-2" x1="0.242" y1="0.815" x2="0.89" y2="0.81" xlink:href="#linear-gradient"/>
    <filter id="Elipse_11" x="100" y="96" width="638" height="555" filterUnits="userSpaceOnUse">
      <feOffset dy="6" input="SourceAlpha"/>
      <feGaussianBlur stdDeviation="6" result="blur-2"/>
      <feFlood flood-opacity="0.161"/>
      <feComposite operator="in" in2="blur-2"/>
      <feComposite in="SourceGraphic"/>
    </filter>
    <linearGradient id="linear-gradient-3" x1="0.434" y1="0.839" x2="-0.057" y2="0.758" xlink:href="#linear-gradient"/>
  </defs>
  <g id="Componente_2_1" data-name="Componente 2 – 1" transform="translate(12 108)">
    <ellipse id="Elipse_13" data-name="Elipse 13" cx="306" cy="259.5" rx="306" ry="259.5" transform="translate(96)" fill="#7b206f" opacity="0.6"/>
    <g transform="matrix(1, 0, 0, 1, -12, -108)" filter="url(#Elipse_10)">
      <circle id="Elipse_10-2" data-name="Elipse 10" cx="223" cy="223" r="223" transform="translate(22 108)" fill="url(#linear-gradient)"/>
    </g>
    <g transform="matrix(1, 0, 0, 1, -12, -108)" filter="url(#Elipse_11)">
      <ellipse id="Elipse_11-2" data-name="Elipse 11" cx="301" cy="259.5" rx="301" ry="259.5" transform="translate(118 108)" fill="url(#linear-gradient-2)"/>
    </g>
    <ellipse id="Elipse_12" data-name="Elipse 12" cx="301.5" cy="259.5" rx="301.5" ry="259.5" transform="translate(120 26)" fill="url(#linear-gradient-3)"/>
    <ellipse id="Elipse_9" data-name="Elipse 9" cx="410" cy="428" rx="410" ry="428" transform="translate(0 56)" fill="#7b206f"/>
  </g>
</svg>
